<?xml version="1.0" encoding="UTF-8" standalone="no"?>
<!-- Created with Inkscape (http://www.inkscape.org/) -->

<svg
   width="31.057018mm"
   height="31.05702mm"
   viewBox="0 0 31.057018 31.05702"
   version="1.1"
   id="svg1"
   inkscape:version="1.3 (0e150ed6c4, 2023-07-21)"
   sodipodi:docname="loading_spiral.svg"
   inkscape:export-filename="loading_spiral.png"
   inkscape:export-xdpi="981.42065"
   inkscape:export-ydpi="981.42065"
   xmlns:inkscape="http://www.inkscape.org/namespaces/inkscape"
   xmlns:sodipodi="http://sodipodi.sourceforge.net/DTD/sodipodi-0.dtd"
   xmlns="http://www.w3.org/2000/svg"
   xmlns:svg="http://www.w3.org/2000/svg">
  <sodipodi:namedview
     id="namedview1"
     pagecolor="#ffffff"
     bordercolor="#000000"
     borderopacity="0.25"
     inkscape:showpageshadow="2"
     inkscape:pageopacity="0.0"
     inkscape:pagecheckerboard="0"
     inkscape:deskcolor="#d1d1d1"
     inkscape:document-units="mm"
     inkscape:zoom="4"
     inkscape:cx="26.875"
     inkscape:cy="29.125"
     inkscape:window-width="1920"
     inkscape:window-height="1057"
     inkscape:window-x="2392"
     inkscape:window-y="-8"
     inkscape:window-maximized="1"
     inkscape:current-layer="layer1" />
  <defs
     id="defs1" />
  <g
     inkscape:label="Layer 1"
     inkscape:groupmode="layer"
     id="layer1"
     transform="translate(-6.8285238,-1.7771525)">
    <path
       id="path7"
       style="opacity:1;fill:#498fcb;stroke-width:0.264999"
       d="M 22.357292,1.7771525 C 13.780897,1.7769265 6.8282982,8.7295248 6.8285238,17.30592 6.8420178,24.382175 11.637861,30.554361 18.491378,32.315857 12.452115,30.448033 8.3318272,24.866626 8.32559,18.545121 c 6.67e-5,-7.96894 6.460153,-14.1644431 14.429093,-14.1645099 1.858988,0 2.35366,-2.6034586 -0.397391,-2.6034586 z"
       sodipodi:nodetypes="cccccc" />
    <path
       id="path9"
       style="display:none;opacity:1;fill:#498fcb;stroke-width:0.264999"
       d="M 22.357292,1.7771525 A 15.528359,15.528359 0 0 0 6.8285238,17.30592 15.528359,15.528359 0 0 0 22.357292,32.834172 15.528359,15.528359 0 0 0 37.885543,17.30592 15.528359,15.528359 0 0 0 22.357292,1.7771525 Z m 0,2.6194784 A 12.909118,12.909118 0 0 1 35.266064,17.30592 12.909118,12.909118 0 0 1 22.357292,30.214693 12.909118,12.909118 0 0 1 9.4480021,17.30592 12.909118,12.909118 0 0 1 22.357292,4.3966309 Z" />
  </g>
</svg>
